<svg width="21" height="22" viewBox="0 0 21 22" fill="none" xmlns="http://www.w3.org/2000/svg">
<path d="M1.41003 21C1.41003 17.13 5.26003 14 10 14C10.96 14 11.89 14.13 12.76 14.37M10 11C11.3261 11 12.5979 10.4732 13.5356 9.53553C14.4733 8.59785 15 7.32608 15 6C15 4.67392 14.4733 3.40215 13.5356 2.46447C12.5979 1.52678 11.3261 1 10 1C8.67395 1 7.40218 1.52678 6.4645 2.46447C5.52682 3.40215 5.00003 4.67392 5.00003 6C5.00003 7.32608 5.52682 8.59785 6.4645 9.53553C7.40218 10.4732 8.67395 11 10 11Z" stroke="#E9DCFF" stroke-width="1.5" stroke-linecap="round" stroke-linejoin="round"/>
<path d="M17.49 16.98H14.51M16 15.52V18.51M20 17C20 17.32 19.96 17.63 19.88 17.93C19.79 18.33 19.63 18.72 19.42 19.06C19.0675 19.6525 18.5667 20.143 17.967 20.4831C17.3674 20.8233 16.6894 21.0014 16 21C15.0155 21.0029 14.0659 20.6352 13.34 19.97C13.04 19.71 12.78 19.4 12.58 19.06C12.1993 18.4404 11.9985 17.7272 12 17C11.9994 16.4745 12.1024 15.9541 12.3031 15.4685C12.5039 14.9829 12.7985 14.5417 13.1701 14.1701C13.5417 13.7985 13.9829 13.5039 14.4685 13.3031C14.9541 13.1024 15.4745 12.9993 16 13C17.18 13 18.25 13.51 18.97 14.33C19.61 15.04 20 15.98 20 17Z" stroke="#E9DCFF" stroke-width="1.5" stroke-miterlimit="10" stroke-linecap="round" stroke-linejoin="round"/>
</svg>
